<svg id="Layer_5" data-name="Layer 5" xmlns="http://www.w3.org/2000/svg" viewBox="0 0 420.79 410.69"><defs><style>.cls-1{fill:#fff;}</style></defs><path class="cls-1" d="M420.15,399.72C392.06,406.1,375.33,410,331.27,410c-32.57,0-72.67-16-102-48.54-23,27.45-56.83,48.52-104.08,48.52-37.67,0-65.77-7-89.39-28.09C14.69,364,0,334,0,297.55,0,263.07,12.77,243.92,33.84,228,49.17,215.82,68.32,205.61,84.92,196c-21.7-26.82-38.31-56.83-38.31-93.23C46.61,44.06,93.22,0,169.85,0c76,0,116.85,41.5,116.85,90,0,26.18-14.05,42.78-35.76,56.19-14.05,8.3-31.92,17.24-56.83,28.1,26.18,30.65,52.36,61.3,74.71,84.92,17.88-39.59,19.16-46,29.37-67.68,18.52-40.87,38.31-67.68,70.88-67.68,28.73,0,40.22,20.43,40.22,38.94,0,14.05-5.74,25.54-12.76,31.93-5.75,5.11-10.22,8.3-17.89,5.75-5.1-1.92-9.57-3.83-16.6-3.83-13.4,0-26.82,7.66-40.22,25.54-9.58,12.13-19.16,30.65-33.21,55.55,46,48.53,95.78,97.69,132.18,98.33ZM94.5,261.8c0,48.52,28.74,98.33,77.9,98.33,17.88,0,28.74-6.39,37-16.6C178.79,311,137.92,263.71,102.8,217.74c-5.11,9.58-8.3,26.81-8.3,43.42ZM167.93,23.63c-23,0-34.48,19.79-34.48,47.88s16.61,54.92,41.5,83c27.46-22.35,33.85-46.61,33.85-72.15,0-28.73-14.05-58.74-40.23-58.74Z"/></svg>