<?xml version="1.0" encoding="utf-8"?>
<!-- Generator: Adobe Illustrator 26.0.1, SVG Export Plug-In . SVG Version: 6.00 Build 0)  -->
<svg version="1.1" xmlns="http://www.w3.org/2000/svg" xmlns:xlink="http://www.w3.org/1999/xlink" x="0px" y="0px"
	 viewBox="0 0 1055.69 1048.61" style="enable-background:new 0 0 1055.69 1048.61;" xml:space="preserve">
<style type="text/css">
	.st0{fill:#8A89EF;}
	.st1{fill:url(#SVGID_1_);}
	.st2{fill:url(#SVGID_00000121980667580518141960000004760746660818670767_);}
	.st3{fill:url(#SVGID_00000003077029602253180030000013154993835717115535_);}
	.st4{fill:url(#SVGID_00000025418978991960947290000014309800811062491070_);}
</style>
<g id="Purple_Ampersand.">
	<path class="st0" d="M737.43,719.26c-28.06,6.38-44.76,10.21-88.77,10.21c-32.52,0-72.57-15.95-101.9-48.48
		c-22.95,27.42-56.75,48.47-103.94,48.47c-37.62,0-65.68-7.02-89.28-28.06c-21.04-17.86-35.71-47.83-35.71-84.18
		c0-34.44,12.75-53.57,33.8-69.51c15.31-12.12,34.44-22.32,51.02-31.89c-21.68-26.78-38.26-56.76-38.26-93.11
		c0-58.67,46.55-102.67,123.08-102.67c75.88,0,116.7,41.45,116.7,89.92c0,26.14-14.03,42.72-35.71,56.12
		c-14.03,8.29-31.89,17.22-56.76,28.06c26.15,30.61,52.29,61.22,74.61,84.81c17.85-39.54,19.13-45.92,29.33-67.6
		c18.5-40.81,38.26-67.59,70.78-67.59c28.7,0,40.17,20.4,40.17,38.9c0,14.03-5.74,25.51-12.75,31.89
		c-5.74,5.1-10.21,8.29-17.86,5.74c-5.1-1.91-9.57-3.82-16.58-3.82c-13.39,0-26.78,7.65-40.17,25.51
		c-9.57,12.12-19.13,30.61-33.16,55.48c45.92,48.46,95.66,97.57,132.01,98.21L737.43,719.26z M412.2,581.52
		c0,48.46,28.7,98.21,77.8,98.21c17.85,0,28.7-6.38,36.99-16.58c-30.61-32.52-71.42-79.71-106.5-125.63
		c-5.1,9.57-8.29,26.78-8.29,43.36V581.52z M485.54,343.66c-22.95,0-34.44,19.77-34.44,47.82c0,28.06,16.58,54.84,41.45,82.9
		c27.42-22.32,33.8-46.55,33.8-72.06c0-28.7-14.02-58.67-40.17-58.67H485.54z"/>
</g>
<g id="Shading">
	<g>
		<g>
			<linearGradient id="SVGID_1_" gradientUnits="userSpaceOnUse" x1="427.384" y1="525.4305" x2="570.0208" y2="607.7819">
				<stop  offset="0" style="stop-color:#A6B9FC;stop-opacity:0"/>
				<stop  offset="0.8606" style="stop-color:#A6B9FC;stop-opacity:0.8606"/>
				<stop  offset="1" style="stop-color:#A6B9FC"/>
			</linearGradient>
			<path class="st1" d="M511.68,494.15l-91.15,43.15c35,45.82,75.95,93.15,106.5,125.61c0,0,34.38-35.64,59.3-84.16
				C565.95,557.41,539.89,527.49,511.68,494.15z"/>
		</g>
	</g>
	<g>
		<g>
			
				<linearGradient id="SVGID_00000063610435441245517470000002060049708529109160_" gradientUnits="userSpaceOnUse" x1="578.7188" y1="624.7944" x2="705.3046" y2="751.3804">
				<stop  offset="0" style="stop-color:#A6B9FC"/>
				<stop  offset="0.1216" style="stop-color:#A6B9FC;stop-opacity:0.878"/>
				<stop  offset="0.9973" style="stop-color:#A6B9FC;stop-opacity:0"/>
			</linearGradient>
			<path style="fill:url(#SVGID_00000063610435441245517470000002060049708529109160_);" d="M606.06,597.45
				c-8.81,15.43-59.31,83.54-59.31,83.54c27.85,31.21,68.08,48.31,101.31,48.48c44.02,0.22,61.37-3.85,89.37-10.21l0.64-23.59
				C701.89,695.51,648.13,642.12,606.06,597.45z"/>
		</g>
	</g>
	<g>
		<g>
			
				<linearGradient id="SVGID_00000068650053726697973930000008762144580273528729_" gradientUnits="userSpaceOnUse" x1="523.0204" y1="496.1512" x2="552.5676" y2="328.5808">
				<stop  offset="0" style="stop-color:#A6B9FC"/>
				<stop  offset="0.0578" style="stop-color:#A6B9FC;stop-opacity:0.9421"/>
				<stop  offset="0.9973" style="stop-color:#A6B9FC;stop-opacity:0"/>
			</linearGradient>
			<path style="fill:url(#SVGID_00000068650053726697973930000008762144580273528729_);" d="M487.09,320.07l-1.28,23.56
				c26.52,0.03,40.23,29.48,40.51,57.95c0.25,25.44-5.96,50.45-33.77,72.79l19.13,19.77c24.85-10.81,43.57-20.24,57.58-28.5
				c19.9-12.76,33.8-27.56,34.78-52.7C606.01,362.71,563.76,319.68,487.09,320.07z"/>
		</g>
	</g>
	<g>
		<g>
			
				<linearGradient id="SVGID_00000049220869881808614760000006473154013532666007_" gradientUnits="userSpaceOnUse" x1="417.7582" y1="733.7695" x2="380.0331" y2="519.8196">
				<stop  offset="0" style="stop-color:#A6B9FC;stop-opacity:0"/>
				<stop  offset="0.8518" style="stop-color:#A6B9FC;stop-opacity:0.8529"/>
				<stop  offset="0.9987" style="stop-color:#A6B9FC"/>
			</linearGradient>
			<path style="fill:url(#SVGID_00000049220869881808614760000006473154013532666007_);" d="M423.81,633.42
				c-21.53-45.39-7.64-88.46-3.32-95.91l-17.85-21.68c-16.54,9.55-34.84,19.3-50.73,31.76c-21.55,16.89-34.62,36.27-34.05,70.53
				c0.58,35.27,12.59,62.95,35.64,83.23c0.1,0.09,0.21,0.18,0.32,0.28c21.84,19.07,48.65,28.24,88.42,27.83l47.38-49.74
				C469.72,679.57,441.71,671.16,423.81,633.42z"/>
		</g>
	</g>
</g>
</svg>
