<svg width="145" height="43" viewBox="0 0 145 43" fill="none" xmlns="http://www.w3.org/2000/svg">
<path d="M97.9864 41.9267C95.0399 42.597 93.2847 43 88.663 43C85.2473 43 81.0402 41.3237 77.9601 37.9079C75.5482 40.7881 71.9988 42.9989 67.0415 42.9989C63.0901 42.9989 60.1426 42.2623 57.6644 40.0525C55.4546 38.1763 53.9141 35.0289 53.9141 31.2132C53.9141 27.5954 55.2536 25.5866 57.4635 23.9124C59.0714 22.6402 61.0813 21.5679 62.8218 20.5629C60.5456 17.7501 58.803 14.6017 58.803 10.7839C58.803 4.62169 63.6931 0 71.7305 0C79.7006 0 83.9876 4.35335 83.9876 9.44436C83.9876 12.1909 82.5144 13.9324 80.2373 15.3372C78.764 16.2085 76.8878 17.1461 74.276 18.2837C77.0225 21.4984 79.7679 24.7142 82.1125 27.1924C83.9877 23.039 84.1223 22.3697 85.1936 20.0926C87.1361 15.8055 89.2123 12.9927 92.6281 12.9927C95.6429 12.9927 96.8478 15.1352 96.8478 17.0777C96.8478 18.5509 96.2459 19.7569 95.5092 20.4272C94.9063 20.9628 94.437 21.2974 93.633 21.0301C93.0974 20.8292 92.6281 20.6282 91.8914 20.6282C90.4856 20.6282 89.0787 21.4321 87.6717 23.3073C86.6679 24.5795 85.6629 26.5221 84.1886 29.1349C89.0113 34.2249 94.236 39.3822 98.0537 39.4474L97.9864 41.9267ZM63.8267 27.4586C63.8267 32.5496 66.8415 37.7711 71.9988 37.7711C73.874 37.7711 75.0126 37.1008 75.8839 36.0296C72.6681 32.6128 68.381 27.6565 64.698 22.8338C64.1613 23.8387 63.8267 25.6476 63.8267 27.3892V27.4586ZM71.5295 2.475C69.1187 2.475 67.9128 4.55118 67.9128 7.49867C67.9128 10.4461 69.6543 13.2589 72.2661 16.2064C75.1463 13.8619 75.8166 11.3164 75.8166 8.63725C75.8166 5.62347 74.3433 2.475 71.5969 2.475H71.5295Z" fill="#5353E9"/>
<path d="M16.742 24.7848C15.0542 26.4545 13.3652 28.1224 11.6752 29.7885H5.97915C5.97915 23.2692 5.9809 16.7505 5.98441 10.2326C5.99527 10.0904 6.05216 9.95555 6.14646 9.84852C6.60527 9.3129 7.0809 8.79096 7.54812 8.26271C7.59758 8.20693 7.63546 8.14064 7.6986 8.05225H0C0.520887 8.63943 0.987054 9.18031 1.47322 9.70225C1.56691 9.79818 1.63999 9.91227 1.68795 10.0375C1.73591 10.1627 1.75773 10.2965 1.75207 10.4304C1.7426 16.177 1.72787 21.9247 1.7647 27.6702C1.76996 28.5121 1.6258 29.1971 0.964954 29.7527C0.677677 29.9947 0.45459 30.3125 0.205196 30.5945C0.148372 30.6608 0.0999682 30.7345 0.0263074 30.8345H15.1194C15.7585 28.7488 16.3969 26.6649 17.0346 24.5828C16.9222 24.6256 16.8218 24.6949 16.742 24.7848Z" fill="#32328C"/>
<path d="M50.5983 14.9637C50.5983 14.6259 50.4794 14.5639 50.1774 14.5649C48.5442 14.5723 46.9152 14.5649 45.28 14.5596C45.1905 14.5596 45.1 14.5691 44.9506 14.5786C45.0558 14.7385 45.14 14.8574 45.2242 14.9721C45.5336 15.3931 45.8556 15.814 46.1471 16.2517C46.2657 16.4316 46.333 16.6405 46.3417 16.8558C46.3523 19.7405 46.3551 22.6255 46.3502 25.5109C46.2902 26.2191 46.0892 27.2209 45.462 27.8922C44.9927 28.3931 44.3676 28.6352 43.5405 28.6236C42.7134 28.612 42.0673 28.3553 41.6464 27.8544C41.2739 27.4156 41.1003 26.8452 41.0224 26.3191C41.0224 26.2654 41.0224 26.2138 41.0224 26.1602C41.0329 22.4456 41.0224 18.7299 41.0224 15.0153C41.0224 14.5586 41.0224 14.5586 40.5541 14.5586H35.3516C35.7725 15.1437 36.1271 15.6635 36.5091 16.1581C36.7038 16.4049 36.8038 16.7132 36.7911 17.0273C36.7911 20.2684 36.7153 23.5126 36.8258 26.7505C36.9311 29.7085 39.4776 31.5142 42.3935 30.7766C43.752 30.4325 44.8927 29.6885 45.8956 28.7288C46.0164 28.6073 46.1282 28.4772 46.2302 28.3395C46.2776 28.2826 46.3249 28.2258 46.367 28.1669C46.3923 28.1353 46.4144 28.1069 46.4417 28.0743C46.5754 28.2616 46.6353 28.3616 46.7111 28.4479C47.3495 29.1753 47.991 29.9004 48.6358 30.623C48.7168 30.7124 48.8273 30.8334 48.9272 30.8334C49.4702 30.8545 50.0153 30.8429 50.5909 30.8429V30.463C50.5909 25.2983 50.5934 20.1319 50.5983 14.9637Z" fill="#32328C"/>
<path d="M26.2082 14.3883C21.4729 14.4157 17.9098 18.326 17.9856 22.7099C17.9971 27.2737 21.6255 31.1114 26.4587 30.9936C31.0319 30.882 34.5613 27.259 34.5698 22.7772C34.575 17.9251 30.7952 14.362 26.2082 14.3883ZM28.8737 29.6614C27.9266 30.017 26.7691 29.6614 25.5916 28.6754C24.3488 27.6231 23.2765 26.0025 22.5578 24.1063C21.1424 20.3401 21.6423 16.5213 23.6501 15.7658C23.8931 15.6752 24.1505 15.6296 24.4098 15.6311C25.1875 15.6311 26.0577 16.0141 26.9353 16.7518C28.1781 17.8041 29.2557 19.4246 29.9681 21.3209C31.3813 25.0828 30.8815 28.9016 28.8737 29.6614Z" fill="#32328C"/>
<path d="M144.264 15.1149C144.264 14.8161 144.171 14.7372 143.887 14.7382C142.217 14.7445 140.547 14.7382 138.877 14.7319C138.801 14.7319 138.724 14.7487 138.597 14.7635C138.991 15.3054 139.345 15.8158 139.724 16.3061C139.921 16.5523 140.024 16.8603 140.015 17.1753C140.006 19.6419 140.004 22.1089 140.008 24.5761C139.974 24.6448 139.96 24.721 139.965 24.7971C139.965 24.8182 140.117 26.9017 139.056 28.0329C138.586 28.5359 137.961 28.7801 137.128 28.7695C136.296 28.759 135.655 28.5002 135.227 27.9972C134.948 27.6487 134.756 27.2395 134.665 26.8028C134.654 26.6807 134.647 26.5566 134.648 26.4292C134.648 22.6589 134.648 18.8885 134.656 15.1181C134.656 14.8171 134.578 14.7235 134.267 14.7266C132.619 14.7414 130.97 14.733 129.321 14.733H128.953C129.374 15.3191 129.733 15.8421 130.124 16.3367C130.319 16.5845 130.417 16.8943 130.401 17.209C130.394 20.388 130.351 23.568 130.414 26.746C130.477 29.9702 133.219 31.8749 136.3 30.931C137.579 30.5385 138.657 29.8134 139.612 28.8916C139.776 28.7338 139.936 28.5759 140.109 28.4044C140.214 28.5159 140.285 28.5907 140.355 28.6696C141 29.3967 141.642 30.1249 142.29 30.8489C142.371 30.9394 142.48 31.0646 142.58 31.0688C143.125 31.0899 143.673 31.0783 144.258 31.0783V30.7058C144.258 25.5081 144.26 20.3112 144.264 15.1149Z" fill="#32328C"/>
<path d="M119.776 14.559C119.043 14.5657 118.313 14.668 117.606 14.8631C117.094 14.9184 116.605 15.105 116.186 15.405C113.361 16.792 111.524 19.7068 111.556 22.8101C111.491 27.416 115.17 31.3442 120.048 31.2284C124.689 31.1158 128.205 27.4118 128.192 22.9563C128.181 18.0852 124.365 14.5148 119.776 14.559ZM122.425 29.8036C121.478 30.1614 120.307 29.8036 119.131 28.8145C118.204 28.0316 117.371 26.9319 116.711 25.6386C116.361 24.9202 116.061 24.1787 115.813 23.4193C114.747 19.9173 115.312 16.5626 117.181 15.8586C117.425 15.768 117.684 15.7224 117.944 15.7239C118.724 15.7239 119.597 16.1069 120.47 16.8488C121.718 17.9011 122.798 19.5311 123.514 21.4337C124.941 25.2135 124.439 29.046 122.425 29.8036Z" fill="#32328C"/>
<path d="M110.167 4.95166C111.078 5.9566 111.956 6.92787 112.835 7.88757L109.595 17.2814C109.546 17.339 109.51 17.4065 109.489 17.4793C109.133 18.6084 108.746 19.7291 108.345 20.8466C106.804 16.4701 105.273 12.0904 103.7 7.72657C103.474 7.1015 103.518 6.69005 104.003 6.25335C104.424 5.87452 104.759 5.41151 105.16 4.95376H97.2796C97.8173 5.56515 98.3224 6.13023 98.8149 6.70584C98.932 6.83958 99.0237 6.99365 99.0853 7.16043C100.494 11.1781 105.236 23.269 106.255 25.8629L106.017 26.5416C105.834 27.0958 105.626 27.6371 105.395 28.1653C105.278 28.4137 105.161 28.661 105.041 28.9019C104.392 30.131 103.589 31.1791 102.698 31.9315C102.256 32.3182 101.754 32.6283 101.21 32.8491C100.396 33.0732 99.5259 32.967 98.7896 32.5534C97.5268 31.4937 97.1585 28.8904 97.8425 26.0765L93.6407 26.0702C93.6335 27.7157 94.1206 29.3254 95.0388 30.6909C95.957 32.0564 97.264 33.1147 98.7906 33.7288C98.8299 33.7426 98.8711 33.75 98.9127 33.7509C99.5343 33.9584 100.194 34.0282 100.845 33.9556C101.496 33.8829 102.124 33.6694 102.684 33.33C104.642 32.2588 105.597 30.2152 106.488 28.2653C107.445 26.1744 108.29 24.0319 109.077 21.8715C109.24 21.5558 109.295 21.2591 109.418 20.9329C109.801 19.8806 110.182 18.8209 110.492 17.7476C111.513 14.7149 112.535 11.6829 113.56 8.65154C113.623 8.4752 113.721 8.31342 113.848 8.1759C114.83 7.08887 115.854 6.05657 116.819 4.95271L110.167 4.95166Z" fill="#32328C"/>
</svg>
