<svg xmlns="http://www.w3.org/2000/svg" viewBox="0 0 1370.95 408.74"><defs><style>.cls-1{fill:#5353e9;}</style></defs><g id="Layer_5" data-name="Layer 5"><path class="cls-1" d="M931.17,398.54c-28,6.37-44.68,10.2-88.61,10.2-32.46,0-72.43-15.93-101.71-48.39-22.91,27.37-56.65,48.38-103.75,48.38-37.55,0-65.56-7-89.12-28-21-17.82-35.64-47.74-35.64-84,0-34.37,12.73-53.47,33.73-69.38C561.35,215.23,580.45,205,597,195.49c-21.64-26.73-38.19-56.65-38.19-92.93C558.81,44,605.27.08,681.65.08c75.75,0,116.49,41.38,116.49,89.75,0,26.1-14,42.65-35.65,56-14,8.27-31.82,17.18-56.65,28,26.1,30.55,52.2,61.11,74.48,84.66C798.14,219,799.41,212.68,809.59,191c18.46-40.74,38.19-67.47,70.66-67.47,28.64,0,40.1,20.36,40.1,38.82,0,14-5.73,25.46-12.73,31.83-5.73,5.09-10.19,8.28-17.83,5.73-5.09-1.91-9.54-3.82-16.54-3.82-13.37,0-26.74,7.64-40.1,25.46-9.55,12.09-19.1,30.55-33.1,55.38,45.83,48.37,95.47,97.38,131.76,98ZM606.54,261.05c0,48.38,28.65,98,77.66,98,17.82,0,28.65-6.37,36.92-16.55-30.55-32.47-71.29-79.57-106.3-125.4-5.09,9.55-8.28,26.74-8.28,43.29ZM679.75,23.63c-22.92,0-34.38,19.73-34.38,47.74s16.55,54.74,41.37,82.75c27.37-22.28,33.74-46.47,33.74-71.93,0-28.64-14-58.56-40.1-58.56Z"/><path class="cls-1" d="M159.1,235.65q-24,23.79-48.14,47.54H56.83q0-92.92.05-185.84a6.23,6.23,0,0,1,1.53-3.65c4.37-5.09,8.88-10,13.32-15.06.47-.54.84-1.17,1.43-2H0c5,5.57,9.38,10.71,14,15.67a9.26,9.26,0,0,1,2.65,6.92c-.08,54.62-.23,109.23.12,163.84.05,8-1.31,14.5-7.6,19.79-2.73,2.29-4.84,5.31-7.21,8-.55.63-1,1.34-1.71,2.28H143.68q9.1-29.73,18.2-59.41A7.07,7.07,0,0,0,159.1,235.65Z"/><path class="cls-1" d="M480.79,142.31c0-3.21-1.13-3.8-4-3.79-15.51.08-31,0-46.54-.05-.85,0-1.7.1-3.13.18,1.05,1.52,1.8,2.65,2.6,3.74,2.94,4.05,6,8,8.77,12.16a11.16,11.16,0,0,1,1.85,5.74q.15,41.13.08,82.25c-.57,6.73-2.48,16.25-8.44,22.63-4.46,4.77-10.4,7.06-18.25,6.95s-14-2.55-18-7.31c-3.53-4.17-5.19-9.59-5.93-14.59,0-.5-.05-1,0-1.51.09-35.3,0-70.61,0-105.91,0-4.34,0-4.34-4.46-4.34h-49.5c4,5.57,7.37,10.5,11,15.2a12.42,12.42,0,0,1,2.68,8.26c0,30.8-.71,61.64.34,92.4.95,28.11,25.2,45.27,52.91,38.26,12.9-3.27,23.74-10.33,33.28-19.46a33.77,33.77,0,0,0,3.17-3.7c.45-.54.9-1.08,1.31-1.64.23-.29.44-.57.7-.88,1.27,1.78,1.84,2.73,2.56,3.55q9.12,10.37,18.3,20.67c.76.85,1.81,2,2.77,2,5.16.2,10.33.09,15.8.09v-3.61Q480.72,216,480.79,142.31Z"/><path class="cls-1" d="M249.07,136.84c-45,.26-78.86,37.42-78.14,79.08.12,43.37,34.59,79.84,80.53,78.72,43.46-1.06,77-35.49,77.07-78.08C328.58,170.45,292.66,136.59,249.07,136.84Zm25.34,145.1c-9,3.38-20.05.05-31.2-9.37-11.81-10-22.05-25.4-28.82-43.42-13.46-35.79-8.71-72.08,10.37-79.26a20.35,20.35,0,0,1,7.23-1.28c7.38,0,15.65,3.64,24,10.65,11.82,10,22.05,25.41,28.83,43.42h0C298.23,238.47,293.48,274.77,274.41,281.94Z"/><path class="cls-1" d="M1371,143.75c0-2.84-.88-3.59-3.59-3.58-15.87.06-31.74,0-47.6-.06-.74,0-1.47.16-2.67.3,3.74,5.15,7.11,10,10.71,14.66a12.65,12.65,0,0,1,2.76,8.26q-.12,35.17-.07,70.33a4.16,4.16,0,0,0-.4,2.11c0,.19,1.44,20-8.64,30.74-4.47,4.78-10.41,7.11-18.31,7s-14-2.56-18.07-7.34a26.74,26.74,0,0,1-5.34-11.35c-.11-1.16-.17-2.34-.17-3.55,0-35.83,0-71.66.08-107.49,0-2.86-.74-3.75-3.69-3.72-15.67.14-31.34.07-47,.07h-3.49c4,5.56,7.4,10.53,11.12,15.23a12.36,12.36,0,0,1,2.63,8.3c-.07,30.2-.48,60.42.12,90.62.61,30.65,26.66,48.74,55.94,39.77,12.16-3.72,22.41-10.62,31.48-19.38,1.55-1.5,3.08-3,4.71-4.63,1,1.06,1.68,1.77,2.34,2.52,6.13,6.91,12.23,13.83,18.39,20.71.77.86,1.81,2.05,2.76,2.09,5.19.2,10.38.09,15.94.09v-3.54Q1371,217.82,1371,143.75Z"/><path class="cls-1" d="M1138.2,138.47a79.69,79.69,0,0,0-20.61,2.9,28.05,28.05,0,0,0-7,1.65,28.64,28.64,0,0,0-6.53,3.49c-26.84,13.18-44.3,40.88-44,70.37-.61,43.77,34.35,81.1,80.71,80,44.1-1.07,77.51-36.27,77.4-78.61C1218.07,171.94,1181.81,138.06,1138.2,138.47Zm25.17,144.87c-9,3.4-20.11.05-31.3-9.4-8.8-7.44-16.72-17.89-23-30.18a166.54,166.54,0,0,1-8.52-21.09c-10.14-33.28-4.77-65.16,13-71.85a20.5,20.5,0,0,1,7.25-1.28c7.42,0,15.72,3.65,24,10.69,11.86,10,22.13,25.49,28.93,43.57C1187.28,239.72,1182.52,276.14,1163.37,283.34Z"/><path class="cls-1" d="M1046.89,47.17c8.66,9.55,17,18.78,25.36,27.91l-30.8,89.26a5.17,5.17,0,0,0-1,1.88c-3.39,10.73-7.06,21.38-10.87,32-14.64-41.59-29.2-83.2-44.15-124.68-2.14-5.94-1.73-9.85,2.88-14.05,4-3.6,7.19-8,11-12.35H924.41c5.12,5.81,9.91,11.18,14.59,16.65a14,14,0,0,1,2.57,4.32C955,106.26,1000,221.16,1009.71,245.81l-2.27,6.45q-2.61,7.92-5.91,15.43-1.65,3.54-3.36,7c-6.16,11.68-13.8,21.65-22.26,28.79a50,50,0,0,1-14.15,8.72,30.51,30.51,0,0,1-23-2.8c-12-10.08-15.5-34.82-9-61.56l-39.94-.06a78.07,78.07,0,0,0,49,72.78,4,4,0,0,0,1.15.22,43,43,0,0,0,35.84-4c18.61-10.19,27.69-29.61,36.16-48.14,9.08-19.87,17.12-40.23,24.59-60.76,1.55-3,2.07-5.82,3.25-8.92,3.64-10,7.26-20.07,10.2-30.27q14.57-43.23,29.15-86.44a13.09,13.09,0,0,1,2.75-4.52c9.32-10.33,19.06-20.14,28.22-30.63Z"/></g></svg>