<svg id="Layer_5" data-name="Layer 5" xmlns="http://www.w3.org/2000/svg" viewBox="0 0 32 32"><defs><style>.cls-1{fill:#8d8bf4;}</style></defs><path class="cls-1" d="M7,31a1,1,0,0,1-.59-.19,1,1,0,0,1-.36-1.13l3.28-9.8-8-6.16a1,1,0,0,1-.34-1.11A1,1,0,0,1,2,11.93l9.82-.09L15.05,1.7A1,1,0,0,1,16,1h0a1,1,0,0,1,.95.7l3.23,10.14,9.83.09a1,1,0,0,1,.94.68,1,1,0,0,1-.34,1.11L22.7,19.88l3.2,9.81a1,1,0,0,1-1.54,1.12L16,24.72,7.63,30.81A1,1,0,0,1,7,31Z"/><path class="cls-1" d="M16,2l3.45,10.84L30,12.93l-8.46,6.59L25,30,16,23.48,7,30l3.5-10.48L2,12.93l10.54-.09L16,2m0-2a2,2,0,0,0-1.9,1.39l-3,9.46L2,10.93a2,2,0,0,0-1.2,3.58L8.2,20.23,5.14,29.37A2,2,0,0,0,7,32a2,2,0,0,0,1.18-.38L16,26l7.77,5.67A2,2,0,0,0,25,32a2.07,2.07,0,0,0,1.18-.38,2,2,0,0,0,.72-2.24l-3-9.15,7.36-5.72a2,2,0,0,0,.66-2.22A2,2,0,0,0,30,10.93l-9.1-.08-3-9.46A2,2,0,0,0,16,0Z"/></svg>