<svg id="Layer_5" data-name="Layer 5" xmlns="http://www.w3.org/2000/svg" viewBox="0 0 32 32"><defs><style>.cls-1{fill:#8d8bf4;}</style></defs><path class="cls-1" d="M16,2l3.45,10.84L30,12.93l-8.46,6.59L25,30,16,23.48,7,30l3.51-10.48L2,12.93l10.54-.09L16,2m0-2a2,2,0,0,0-1.91,1.39l-3,9.46L2,10.93a2,2,0,0,0-1.2,3.58L8.2,20.23,5.14,29.37A2,2,0,0,0,7,32a2,2,0,0,0,1.18-.38L16,26l7.77,5.67a2,2,0,0,0,2.36,0,2,2,0,0,0,.72-2.24l-3-9.15,7.36-5.72a2,2,0,0,0,.66-2.22A2,2,0,0,0,30,10.93l-9.1-.08-3-9.46A2,2,0,0,0,16,0Z"/></svg>